<?xml version="1.0" encoding="UTF-8"?>
<svg width="460px" height="460px" viewBox="0 0 460 460" version="1.1" xmlns="http://www.w3.org/2000/svg" xmlns:xlink="http://www.w3.org/1999/xlink">
    <!-- Generator: Sketch 63.1 (92452) - https://sketch.com -->
    <title>Artboard</title>
    <desc>Created with Sketch.</desc>
    <g id="Artboard" stroke="none" stroke-width="1" fill="none" fill-rule="evenodd">
        <path d="M230,70 C318.36556,70 390,141.63444 390,230 C390,318.36556 318.36556,390 230,390 C141.63444,390 70,318.36556 70,230 C70,141.63444 141.63444,70 230,70 Z M230,306 C216.745166,306 206,316.745166 206,330 C206,343.254834 216.745166,354 230,354 C243.254834,354 254,343.254834 254,330 C254,316.745166 243.254834,306 230,306 Z M176.259885,283.740115 C166.887302,274.367532 151.691342,274.367532 142.318759,283.740115 C132.946176,293.112698 132.946176,308.308658 142.318759,317.681241 C151.691342,327.053824 166.887302,327.053824 176.259885,317.681241 C185.632468,308.308658 185.632468,293.112698 176.259885,283.740115 Z M317.681241,283.740115 C308.308658,274.367532 293.112698,274.367532 283.740115,283.740115 C274.367532,293.112698 274.367532,308.308658 283.740115,317.681241 C293.112698,327.053824 308.308658,327.053824 317.681241,317.681241 C327.053824,308.308658 327.053824,293.112698 317.681241,283.740115 Z M230,206 C216.745166,206 206,216.745166 206,230 C206,243.254834 216.745166,254 230,254 C243.254834,254 254,243.254834 254,230 C254,216.745166 243.254834,206 230,206 Z M130,206 C116.745166,206 106,216.745166 106,230 C106,243.254834 116.745166,254 130,254 C143.254834,254 154,243.254834 154,230 C154,216.745166 143.254834,206 130,206 Z M330,206 C316.745166,206 306,216.745166 306,230 C306,243.254834 316.745166,254 330,254 C343.254834,254 354,243.254834 354,230 C354,216.745166 343.254834,206 330,206 Z M176.259885,142.318759 C166.887302,132.946176 151.691342,132.946176 142.318759,142.318759 C132.946176,151.691342 132.946176,166.887302 142.318759,176.259885 C151.691342,185.632468 166.887302,185.632468 176.259885,176.259885 C185.632468,166.887302 185.632468,151.691342 176.259885,142.318759 Z M317.681241,142.318759 C308.308658,132.946176 293.112698,132.946176 283.740115,142.318759 C274.367532,151.691342 274.367532,166.887302 283.740115,176.259885 C293.112698,185.632468 308.308658,185.632468 317.681241,176.259885 C327.053824,166.887302 327.053824,151.691342 317.681241,142.318759 Z M230,106 C216.745166,106 206,116.745166 206,130 C206,143.254834 216.745166,154 230,154 C243.254834,154 254,143.254834 254,130 C254,116.745166 243.254834,106 230,106 Z" id="Body" fill="#FFFFFF"></path>
        <g id="Tentacles" fill="#FFFFFF">
            <path d="M240,380 L239.999522,414.175949 C248.261898,417.967876 254,426.313835 254,436 C254,449.254834 243.254834,460 230,460 C216.745166,460 206,449.254834 206,436 C206,426.314225 211.73764,417.968548 219.999481,414.176407 L220,380 L240,380 Z M164.537172,365.331512 L183.08085,372.823644 L170.27787,404.510853 C176.518131,411.121807 178.711955,421.009577 175.083454,429.990432 C170.118106,442.2801 156.130152,448.217635 143.840484,443.252287 C131.550815,438.286938 125.613281,424.298984 130.578629,412.009316 C134.206984,403.028822 142.653177,397.440202 151.733983,397.019131 L164.537172,365.331512 Z M297.814718,364.168417 L311.167885,395.627731 C320.255066,395.88985 328.798043,401.330291 332.582729,410.246453 C337.761805,422.447592 332.069299,436.53704 319.86816,441.716116 C307.667021,446.895193 293.577572,441.202686 288.398496,429.001547 C284.613962,420.085744 286.634572,410.161633 292.757929,403.442791 L279.404621,371.983039 L297.814718,364.168417 Z M343.137085,328.994949 L367.302792,353.161333 C375.826472,350.000248 385.785407,351.844281 392.63456,358.693434 C402.007143,368.066017 402.007143,383.261977 392.63456,392.63456 C383.261977,402.007143 368.066017,402.007143 358.693434,392.63456 C351.844557,385.785682 350.000396,375.827273 353.160951,367.303822 L328.994949,343.137085 L343.137085,328.994949 Z M116.862915,328.994949 L131.005051,343.137085 L106.838667,367.302792 C109.999752,375.826472 108.155719,385.785407 101.306566,392.63456 C91.9339828,402.007143 76.7380233,402.007143 67.3654403,392.63456 C57.9928573,383.261977 57.9928573,368.066017 67.3654403,358.693434 C74.2143175,351.844557 84.1727268,350.000396 92.6961784,353.160951 L116.862915,328.994949 Z M88.0169607,279.404621 L95.8315833,297.814718 L64.3722691,311.167885 C64.1101501,320.255066 58.669709,328.798043 49.7535473,332.582729 C37.5524082,337.761805 23.46296,332.069299 18.2838837,319.86816 C13.1048075,307.667021 18.7973141,293.577572 30.9984531,288.398496 C39.914256,284.613962 49.8383671,286.634572 56.557209,292.757929 L88.0169607,279.404621 Z M372.823644,276.91915 L404.510853,289.72213 C411.121807,283.481869 421.009577,281.288045 429.990432,284.916546 C442.2801,289.881894 448.217635,303.869848 443.252287,316.159516 C438.286938,328.449185 424.298984,334.386719 412.009316,329.421371 C403.028822,325.793016 397.440202,317.346823 397.019131,308.266017 L365.331512,295.462828 L372.823644,276.91915 Z M436,206 C449.254834,206 460,216.745166 460,230 C460,243.254834 449.254834,254 436,254 C426.314225,254 417.968548,248.26236 414.176407,240.000519 L380,240 L380,220 L414.175949,220.000478 C417.967876,211.738102 426.313835,206 436,206 Z M24,206 C33.685775,206 42.0314524,211.73764 45.8235927,219.999481 L80,220 L80,240 L45.8240506,239.999522 C42.0321242,248.261898 33.6861649,254 24,254 C10.745166,254 2.74171032e-14,243.254834 2.82287277e-14,230 C2.90403522e-14,216.745166 10.745166,206 24,206 Z M47.9906842,130.578629 C56.9711784,134.206984 62.559798,142.653177 62.9808693,151.733983 L94.6684877,164.537172 L87.1763559,183.08085 L55.4891465,170.27787 C48.878193,176.518131 38.9904234,178.711955 30.0095677,175.083454 C17.7198996,170.118106 11.7823652,156.130152 16.7477134,143.840484 C21.7130617,131.550815 35.7010161,125.613281 47.9906842,130.578629 Z M441.716116,140.13184 C446.895193,152.332979 441.202686,166.422428 429.001547,171.601504 C420.085744,175.386038 410.161633,173.365428 403.442791,167.242071 L371.983039,180.595379 L364.168417,162.185282 L395.627731,148.832115 C395.88985,139.744934 401.330291,131.201957 410.246453,127.417271 C422.447592,122.238195 436.53704,127.930701 441.716116,140.13184 Z M392.63456,67.3654403 C402.007143,76.7380233 402.007143,91.9339828 392.63456,101.306566 C385.785682,108.155443 375.827273,109.999604 367.303822,106.839049 L343.137085,131.005051 L328.994949,116.862915 L353.161333,92.6972076 C350.000248,84.1735284 351.844281,74.2145932 358.693434,67.3654403 C368.066017,57.9928573 383.261977,57.9928573 392.63456,67.3654403 Z M101.306566,67.3654403 C108.155443,74.2143175 109.999604,84.1727268 106.839049,92.6961784 L131.005051,116.862915 L116.862915,131.005051 L92.6972076,106.838667 C84.1735284,109.999752 74.2145932,108.155719 67.3654403,101.306566 C57.9928573,91.9339828 57.9928573,76.7380233 67.3654403,67.3654403 C76.7380233,57.9928573 91.9339828,57.9928573 101.306566,67.3654403 Z M171.601504,30.9984531 C175.386038,39.914256 173.365428,49.8383671 167.242071,56.557209 L180.595379,88.0169607 L162.185282,95.8315833 L148.832115,64.3722691 C139.744934,64.1101501 131.201957,58.669709 127.417271,49.7535473 C122.238195,37.5524082 127.930701,23.46296 140.13184,18.2838837 C152.332979,13.1048075 166.422428,18.7973141 171.601504,30.9984531 Z M316.159516,16.7477134 C328.449185,21.7130617 334.386719,35.7010161 329.421371,47.9906842 C325.793016,56.9711784 317.346823,62.559798 308.266017,62.9808693 L295.462828,94.6684877 L276.91915,87.1763559 L289.72213,55.4891465 C283.481869,48.878193 281.288045,38.9904234 284.916546,30.0095677 C289.881894,17.7198996 303.869848,11.7823652 316.159516,16.7477134 Z M230,0 C243.254834,0 254,10.745166 254,24 C254,33.685775 248.26236,42.0314524 240.000519,45.8235927 L240,80 L220,80 L220.000478,45.8240506 C211.738102,42.0321242 206,33.6861649 206,24 C206,10.745166 216.745166,0 230,0 Z" id="Combined-Shape"></path>
        </g>
    </g>
</svg>